<mxfile host="app.diagrams.net" modified="2021-11-11T15:38:38.639Z" agent="5.0 (Windows NT 10.0; Win64; x64) AppleWebKit/537.36 (KHTML, like Gecko) Chrome/95.0.4638.69 Safari/537.36" etag="Ql6qyE2TvDJbxhNmmCNk" version="15.7.3" type="github">
  <diagram id="R2lEEEUBdFMjLlhIrx00" name="Main Model">
    <mxGraphModel dx="2071" dy="644" grid="1" gridSize="10" guides="1" tooltips="1" connect="1" arrows="1" fold="1" page="1" pageScale="1" pageWidth="850" pageHeight="1100" math="0" shadow="0" extFonts="Permanent Marker^https://fonts.googleapis.com/css?family=Permanent+Marker">
      <root>
        <mxCell id="0" />
        <mxCell id="1" parent="0" />
        <mxCell id="yIJliMgclkVbOiJhYALE-7" value="Footballer" style="swimlane;" vertex="1" parent="1">
          <mxGeometry x="-150" y="170" width="200" height="70" as="geometry" />
        </mxCell>
        <mxCell id="yIJliMgclkVbOiJhYALE-8" value="Player" style="swimlane;" vertex="1" parent="1">
          <mxGeometry y="340" width="200" height="70" as="geometry" />
        </mxCell>
        <mxCell id="yIJliMgclkVbOiJhYALE-9" value="Coach" style="swimlane;" vertex="1" parent="1">
          <mxGeometry x="-310" y="350" width="200" height="70" as="geometry" />
        </mxCell>
        <mxCell id="yIJliMgclkVbOiJhYALE-10" value="" style="endArrow=block;dashed=1;endFill=0;endSize=12;html=1;rounded=0;exitX=0.5;exitY=0;exitDx=0;exitDy=0;" edge="1" parent="1" source="yIJliMgclkVbOiJhYALE-9">
          <mxGeometry width="160" relative="1" as="geometry">
            <mxPoint x="90" y="360" as="sourcePoint" />
            <mxPoint x="-130" y="240" as="targetPoint" />
            <Array as="points">
              <mxPoint x="-210" y="300" />
              <mxPoint x="-130" y="300" />
            </Array>
          </mxGeometry>
        </mxCell>
        <mxCell id="yIJliMgclkVbOiJhYALE-11" value="" style="endArrow=block;dashed=1;endFill=0;endSize=12;html=1;rounded=0;entryX=0.75;entryY=1;entryDx=0;entryDy=0;exitX=0.5;exitY=0;exitDx=0;exitDy=0;" edge="1" parent="1" source="yIJliMgclkVbOiJhYALE-8" target="yIJliMgclkVbOiJhYALE-7">
          <mxGeometry width="160" relative="1" as="geometry">
            <mxPoint x="90" y="360" as="sourcePoint" />
            <mxPoint x="250" y="360" as="targetPoint" />
            <Array as="points">
              <mxPoint x="100" y="310" />
              <mxPoint y="310" />
            </Array>
          </mxGeometry>
        </mxCell>
        <mxCell id="yIJliMgclkVbOiJhYALE-12" value="Calendar" style="swimlane;" vertex="1" parent="1">
          <mxGeometry x="600" y="110" width="200" height="70" as="geometry" />
        </mxCell>
        <mxCell id="yIJliMgclkVbOiJhYALE-14" value="" style="endArrow=diamondThin;endFill=1;endSize=24;html=1;rounded=0;exitX=0.5;exitY=1;exitDx=0;exitDy=0;entryX=0.5;entryY=0;entryDx=0;entryDy=0;" edge="1" parent="1" source="yIJliMgclkVbOiJhYALE-12" target="yIJliMgclkVbOiJhYALE-15">
          <mxGeometry width="160" relative="1" as="geometry">
            <mxPoint x="600" y="280" as="sourcePoint" />
            <mxPoint x="760" y="280" as="targetPoint" />
          </mxGeometry>
        </mxCell>
        <mxCell id="yIJliMgclkVbOiJhYALE-15" value="Week" style="swimlane;" vertex="1" parent="1">
          <mxGeometry x="600" y="230" width="200" height="70" as="geometry" />
        </mxCell>
        <mxCell id="yIJliMgclkVbOiJhYALE-16" value="Match" style="swimlane;" vertex="1" parent="1">
          <mxGeometry x="600" y="360" width="200" height="70" as="geometry" />
        </mxCell>
        <mxCell id="yIJliMgclkVbOiJhYALE-17" value="" style="endArrow=diamondThin;endFill=1;endSize=24;html=1;rounded=0;entryX=0.5;entryY=0;entryDx=0;entryDy=0;exitX=0.5;exitY=1;exitDx=0;exitDy=0;" edge="1" parent="1" source="yIJliMgclkVbOiJhYALE-15" target="yIJliMgclkVbOiJhYALE-16">
          <mxGeometry width="160" relative="1" as="geometry">
            <mxPoint x="430" y="300" as="sourcePoint" />
            <mxPoint x="590" y="300" as="targetPoint" />
          </mxGeometry>
        </mxCell>
        <mxCell id="yIJliMgclkVbOiJhYALE-18" value="Team" style="swimlane;" vertex="1" parent="1">
          <mxGeometry x="290" y="360" width="200" height="70" as="geometry" />
        </mxCell>
        <mxCell id="yIJliMgclkVbOiJhYALE-19" value="home" style="endArrow=block;endFill=1;html=1;edgeStyle=orthogonalEdgeStyle;align=left;verticalAlign=top;rounded=0;entryX=1;entryY=0;entryDx=0;entryDy=0;exitX=0;exitY=0;exitDx=0;exitDy=0;" edge="1" parent="1" source="yIJliMgclkVbOiJhYALE-16" target="yIJliMgclkVbOiJhYALE-18">
          <mxGeometry relative="1" as="geometry">
            <mxPoint x="680" y="490" as="sourcePoint" />
            <mxPoint x="840" y="490" as="targetPoint" />
            <Array as="points">
              <mxPoint x="545" y="360" />
              <mxPoint x="545" y="360" />
            </Array>
            <mxPoint as="offset" />
          </mxGeometry>
        </mxCell>
        <mxCell id="yIJliMgclkVbOiJhYALE-20" value="1" style="edgeLabel;resizable=0;html=1;align=left;verticalAlign=bottom;" connectable="0" vertex="1" parent="yIJliMgclkVbOiJhYALE-19">
          <mxGeometry x="-1" relative="1" as="geometry">
            <mxPoint x="-10" as="offset" />
          </mxGeometry>
        </mxCell>
        <mxCell id="yIJliMgclkVbOiJhYALE-21" value="away" style="endArrow=block;endFill=1;html=1;edgeStyle=orthogonalEdgeStyle;align=left;verticalAlign=top;rounded=0;exitX=0;exitY=1;exitDx=0;exitDy=0;entryX=1;entryY=1;entryDx=0;entryDy=0;" edge="1" parent="1" source="yIJliMgclkVbOiJhYALE-16" target="yIJliMgclkVbOiJhYALE-18">
          <mxGeometry x="0.0909" relative="1" as="geometry">
            <mxPoint x="810" y="387.5" as="sourcePoint" />
            <mxPoint x="890" y="387.5" as="targetPoint" />
            <Array as="points">
              <mxPoint x="550" y="430" />
              <mxPoint x="550" y="430" />
            </Array>
            <mxPoint as="offset" />
          </mxGeometry>
        </mxCell>
        <mxCell id="yIJliMgclkVbOiJhYALE-22" value="1" style="edgeLabel;resizable=0;html=1;align=left;verticalAlign=bottom;" connectable="0" vertex="1" parent="yIJliMgclkVbOiJhYALE-21">
          <mxGeometry x="-1" relative="1" as="geometry">
            <mxPoint x="-10" as="offset" />
          </mxGeometry>
        </mxCell>
        <mxCell id="yIJliMgclkVbOiJhYALE-31" value="1" style="endArrow=open;html=1;endSize=12;startArrow=diamondThin;startSize=14;startFill=0;edgeStyle=orthogonalEdgeStyle;align=left;verticalAlign=bottom;rounded=0;entryX=1;entryY=0.75;entryDx=0;entryDy=0;exitX=0.25;exitY=0;exitDx=0;exitDy=0;" edge="1" parent="1" source="yIJliMgclkVbOiJhYALE-18" target="yIJliMgclkVbOiJhYALE-7">
          <mxGeometry x="-1" y="-10" relative="1" as="geometry">
            <mxPoint x="210" y="250" as="sourcePoint" />
            <mxPoint x="370" y="250" as="targetPoint" />
            <mxPoint as="offset" />
          </mxGeometry>
        </mxCell>
        <mxCell id="yIJliMgclkVbOiJhYALE-32" value="" style="endArrow=open;endFill=1;endSize=12;html=1;rounded=0;entryX=0.5;entryY=1;entryDx=0;entryDy=0;exitX=0.5;exitY=1;exitDx=0;exitDy=0;" edge="1" parent="1" source="yIJliMgclkVbOiJhYALE-16" target="yIJliMgclkVbOiJhYALE-7">
          <mxGeometry width="160" relative="1" as="geometry">
            <mxPoint x="50" y="490" as="sourcePoint" />
            <mxPoint x="210" y="490" as="targetPoint" />
            <Array as="points">
              <mxPoint x="700" y="540" />
              <mxPoint x="310" y="540" />
              <mxPoint x="-50" y="540" />
            </Array>
          </mxGeometry>
        </mxCell>
      </root>
    </mxGraphModel>
  </diagram>
</mxfile>
